# This file uses centimeters as units for non-parametric coordinates.

mtllib oculus_cv1_controller_left_button_enter.mtl
v -0.004836 0.005923 0.067118
v -0.003960 0.006010 0.067223
v -0.003073 0.005986 0.067194
v -0.002211 0.005853 0.067033
v -0.001406 0.005616 0.066744
v -0.000690 0.005283 0.066339
v -0.000090 0.004869 0.065834
v 0.000372 0.004388 0.065249
v 0.000676 0.003859 0.064605
v 0.000813 0.003302 0.063928
v 0.000775 0.002740 0.063243
v 0.000566 0.002193 0.062576
v 0.000192 0.001682 0.061955
v -0.000331 0.001227 0.061401
v -0.000985 0.000846 0.060937
v -0.001742 0.000553 0.060581
v -0.002576 0.000360 0.060345
v -0.003452 0.000273 0.060240
v -0.004339 0.000297 0.060269
v -0.005201 0.000430 0.060431
v -0.006006 0.000667 0.060719
v -0.006722 0.001000 0.061124
v -0.007322 0.001414 0.061629
v -0.007784 0.001895 0.062214
v -0.008088 0.002424 0.062858
v -0.008225 0.002980 0.063536
v -0.008187 0.003543 0.064221
v -0.007978 0.004090 0.064887
v -0.007604 0.004601 0.065509
v -0.007081 0.005056 0.066062
v -0.006427 0.005437 0.066526
v -0.005670 0.005730 0.066883
v -0.003706 0.004141 0.062910
v -0.004829 0.006906 0.066275
v -0.004836 0.006899 0.066317
v -0.003958 0.006992 0.066380
v -0.003960 0.006985 0.066422
v -0.003077 0.006968 0.066351
v -0.003073 0.006962 0.066393
v -0.002220 0.006836 0.066191
v -0.002211 0.006829 0.066231
v -0.001421 0.006600 0.065904
v -0.001406 0.006591 0.065942
v -0.000709 0.006270 0.065502
v -0.000690 0.006259 0.065538
v -0.000112 0.005858 0.065000
v -0.000090 0.005845 0.065033
v 0.000346 0.005380 0.064418
v 0.000372 0.005364 0.064447
v 0.000649 0.004854 0.063778
v 0.000676 0.004835 0.063804
v 0.000784 0.004301 0.063105
v 0.000813 0.004278 0.063126
v 0.000747 0.003742 0.062424
v 0.000775 0.003716 0.062441
v 0.000539 0.003198 0.061762
v 0.000566 0.003168 0.061775
v 0.000168 0.002691 0.061144
v 0.000192 0.002658 0.061153
v -0.000353 0.002239 0.060594
v -0.000331 0.002203 0.060600
v -0.001002 0.001860 0.060133
v -0.000985 0.001822 0.060136
v -0.001755 0.001569 0.059779
v -0.001742 0.001529 0.059779
v -0.002583 0.001377 0.059545
v -0.002576 0.001336 0.059544
v -0.003454 0.001291 0.059440
v -0.003452 0.001249 0.059438
v -0.004335 0.001315 0.059469
v -0.004339 0.001273 0.059467
v -0.005192 0.001447 0.059630
v -0.005201 0.001406 0.059629
v -0.005991 0.001683 0.059917
v -0.006006 0.001643 0.059918
v -0.006703 0.002013 0.060319
v -0.006722 0.001975 0.060322
v -0.007300 0.002425 0.060821
v -0.007322 0.002390 0.060827
v -0.007758 0.002903 0.061402
v -0.007784 0.002871 0.061413
v -0.008061 0.003428 0.062042
v -0.008088 0.003400 0.062057
v -0.008196 0.003981 0.062716
v -0.008225 0.003956 0.062734
v -0.008159 0.004540 0.063396
v -0.008187 0.004519 0.063419
v -0.007951 0.005084 0.064058
v -0.007978 0.005066 0.064085
v -0.007580 0.005592 0.064676
v -0.007604 0.005577 0.064707
v -0.007059 0.006044 0.065226
v -0.007081 0.006031 0.065261
v -0.006410 0.006422 0.065687
v -0.006427 0.006413 0.065724
v -0.005657 0.006713 0.066042
v -0.005670 0.006705 0.066081
v -0.004797 0.006826 0.066178
v -0.004810 0.006859 0.066219
v -0.003951 0.006909 0.066280
v -0.003954 0.006944 0.066322
v -0.003095 0.006886 0.066252
v -0.003088 0.006921 0.066294
v -0.002263 0.006758 0.066096
v -0.002245 0.006791 0.066135
v -0.001487 0.006529 0.065817
v -0.001459 0.006559 0.065853
v -0.000796 0.006208 0.065427
v -0.000759 0.006234 0.065458
v -0.000216 0.005808 0.064940
v -0.000173 0.005829 0.064965
v 0.000229 0.005344 0.064374
v 0.000278 0.005359 0.064393
v 0.000523 0.004834 0.063753
v 0.000576 0.004842 0.063764
v 0.000655 0.004297 0.063099
v 0.000709 0.004299 0.063102
v 0.000619 0.003754 0.062438
v 0.000673 0.003749 0.062432
v 0.000416 0.003226 0.061795
v 0.000468 0.003214 0.061782
v 0.000056 0.002733 0.061195
v 0.000103 0.002715 0.061174
v -0.000449 0.002294 0.060661
v -0.000409 0.002271 0.060633
v -0.001080 0.001926 0.060214
v -0.001047 0.001899 0.060180
v -0.001811 0.001644 0.059869
v -0.001788 0.001613 0.059832
v -0.002615 0.001457 0.059642
v -0.002602 0.001424 0.059602
v -0.003461 0.001373 0.059541
v -0.003458 0.001339 0.059499
v -0.004317 0.001396 0.059568
v -0.004324 0.001362 0.059527
v -0.005149 0.001525 0.059725
v -0.005167 0.001492 0.059685
v -0.005925 0.001754 0.060003
v -0.005953 0.001724 0.059967
v -0.006616 0.002074 0.060394
v -0.006653 0.002049 0.060362
v -0.007196 0.002474 0.060881
v -0.007239 0.002454 0.060856
v -0.007641 0.002939 0.061446
v -0.007690 0.002924 0.061428
v -0.007935 0.003449 0.062067
v -0.007988 0.003440 0.062057
v -0.008067 0.003986 0.062721
v -0.008121 0.003984 0.062719
v -0.008031 0.004529 0.063382
v -0.008084 0.004534 0.063388
v -0.007828 0.005057 0.064025
v -0.007880 0.005068 0.064039
v -0.007468 0.005550 0.064625
v -0.007515 0.005567 0.064646
v -0.006963 0.005989 0.065159
v -0.007003 0.006012 0.065187
v -0.006332 0.006356 0.065607
v -0.006365 0.006384 0.065641
v -0.005601 0.006639 0.065951
v -0.005624 0.006670 0.065989
vt 0.047002 0.900057
vt 0.055616 0.898729
vt 0.056122 0.907584
vt 0.049243 0.908636
vt 0.064319 0.899106
vt 0.063041 0.907882
vt 0.038844 0.903088
vt 0.042731 0.911049
vt 0.072761 0.901158
vt 0.069798 0.909512
vt 0.056133 0.907773
vt 0.062987 0.908061
vt 0.031456 0.907667
vt 0.036830 0.914696
vt 0.080627 0.904872
vt 0.076078 0.912470
vt 0.025349 0.913301
vt 0.031917 0.919225
vt 0.087524 0.909984
vt 0.081599 0.916552
vt 0.093158 0.916091
vt 0.086129 0.921465
vt 0.097737 0.923479
vt 0.089776 0.927366
vt 0.100768 0.931637
vt 0.092189 0.933878
vt 0.102096 0.940251
vt 0.093241 0.940757
vt 0.101719 0.948953
vt 0.092943 0.947676
vt 0.099667 0.957396
vt 0.091313 0.954433
vt 0.093052 0.940768
vt 0.092763 0.947622
vt 0.095953 0.965262
vt 0.088355 0.960714
vt 0.090841 0.972159
vt 0.084272 0.966234
vt 0.084734 0.977793
vt 0.079360 0.970764
vt 0.077346 0.982372
vt 0.073459 0.974411
vt 0.069188 0.985403
vt 0.066946 0.976824
vt 0.060574 0.986731
vt 0.060068 0.977876
vt 0.051871 0.986354
vt 0.053149 0.977578
vt 0.043429 0.984302
vt 0.046392 0.975948
vt 0.060057 0.977687
vt 0.053202 0.977398
vt 0.035563 0.980587
vt 0.040111 0.972990
vt 0.028666 0.975476
vt 0.034591 0.968907
vt 0.023032 0.969369
vt 0.030061 0.963995
vt 0.060000 0.976677
vt 0.018453 0.961981
vt 0.026414 0.958094
vt 0.015422 0.953823
vt 0.024001 0.951581
vt 0.014094 0.945209
vt 0.022949 0.944703
vt 0.014471 0.936506
vt 0.023247 0.937784
vt 0.016523 0.928064
vt 0.024877 0.931027
vt 0.023138 0.944692
vt 0.023427 0.937837
vt 0.020237 0.920198
vt 0.027835 0.924746
vt 0.049351 0.908827
vt 0.056166 0.908360
vt 0.049498 0.909397
vt 0.062908 0.908644
vt 0.049603 0.909807
vt 0.056190 0.908782
vt 0.042905 0.911185
vt 0.043160 0.911715
vt 0.066587 0.975653
vt 0.069660 0.909683
vt 0.069465 0.910238
vt 0.062849 0.909063
vt 0.043343 0.912096
vt 0.037042 0.914754
vt 0.037396 0.915224
vt 0.060024 0.977099
vt 0.075885 0.912574
vt 0.075585 0.913081
vt 0.069326 0.910637
vt 0.037650 0.915562
vt 0.031989 0.919399
vt 0.032428 0.919791
vt 0.053341 0.976397
vt 0.081426 0.916624
vt 0.081034 0.917063
vt 0.075371 0.913445
vt 0.032743 0.920073
vt 0.027939 0.924940
vt 0.028446 0.925239
vt 0.086071 0.921677
vt 0.085600 0.922031
vt 0.080752 0.917378
vt 0.028810 0.925454
vt 0.058095 0.942730
vt 0.025048 0.931165
vt 0.025603 0.931359
vt 0.089640 0.927540
vt 0.089110 0.927795
vt 0.085263 0.922285
vt 0.026002 0.931499
vt 0.024009 0.937917
vt 0.072846 0.973364
vt 0.091997 0.933986
vt 0.091428 0.934133
vt 0.088729 0.927978
vt 0.024428 0.937976
vt 0.066692 0.976063
vt 0.023725 0.944659
vt 0.066839 0.976632
vt 0.092464 0.940801
vt 0.091018 0.934238
vt 0.024148 0.944635
vt 0.024192 0.951474
vt 0.024762 0.951327
vt 0.053282 0.976815
vt 0.092180 0.947543
vt 0.092042 0.940824
vt 0.025172 0.951222
vt 0.046864 0.974823
vt 0.026550 0.957920
vt 0.027080 0.957665
vt 0.091142 0.954295
vt 0.090586 0.954100
vt 0.091762 0.947484
vt 0.027461 0.957481
vt 0.030119 0.963782
vt 0.030590 0.963429
vt 0.088251 0.960520
vt 0.087744 0.960221
vt 0.090187 0.953961
vt 0.030927 0.963174
vt 0.034764 0.968836
vt 0.035156 0.968397
vt 0.084201 0.966061
vt 0.083762 0.965669
vt 0.087380 0.960006
vt 0.035438 0.968081
vt 0.040305 0.972886
vt 0.040604 0.972379
vt 0.078539 0.969897
vt 0.079147 0.970706
vt 0.078794 0.970235
vt 0.083447 0.965387
vt 0.040819 0.972015
vt 0.073030 0.973745
vt 0.046530 0.975777
vt 0.046724 0.975221
vt 0.073285 0.974275
vn -0.249742 0.614623 0.748243
vn -0.056030 0.633738 0.771516
vn -0.056030 0.633738 0.771516
vn -0.249741 0.614623 0.748243
vn 0.139825 0.628504 0.765135
vn 0.139826 0.628504 0.765135
vn 0.330290 0.599112 0.729365
vn 0.330288 0.599112 0.729365
vn 0.508094 0.546692 0.665558
vn 0.508094 0.546692 0.665558
vn 0.666382 0.473260 0.576160
vn 0.666384 0.473258 0.576158
vn 0.799035 0.381651 0.464634
vn 0.799035 0.381652 0.464634
vn 0.900984 0.275380 0.335253
vn 0.900983 0.275381 0.335255
vn 0.968310 0.158524 0.192990
vn 0.968310 0.158524 0.192990
vn 0.998429 0.035570 0.043304
vn 0.998428 0.035571 0.043306
vn 0.990178 -0.088743 -0.108038
vn 0.990178 -0.088743 -0.108038
vn 0.943874 -0.209654 -0.255238
vn 0.943874 -0.209655 -0.255239
vn 0.861301 -0.322505 -0.392622
vn 0.861300 -0.322506 -0.392622
vn 0.745621 -0.422969 -0.514924
vn 0.745620 -0.422969 -0.514925
vn 0.601288 -0.507173 -0.617437
vn 0.601288 -0.507173 -0.617437
vn 0.433853 -0.571885 -0.696218
vn 0.433853 -0.571885 -0.696218
vn 0.249750 -0.614619 -0.748243
vn 0.249750 -0.614619 -0.748243
vn 0.056050 -0.633736 -0.771516
vn 0.056051 -0.633736 -0.771516
vn -0.139821 -0.628495 -0.765143
vn -0.139821 -0.628495 -0.765143
vn -0.330320 -0.599096 -0.729364
vn -0.330319 -0.599096 -0.729365
vn -0.508112 -0.546680 -0.665555
vn -0.508110 -0.546680 -0.665556
vn -0.666354 -0.473273 -0.576182
vn -0.666354 -0.473272 -0.576181
vn -0.799024 -0.381663 -0.464645
vn -0.799022 -0.381664 -0.464646
vn -0.900980 -0.275385 -0.335257
vn -0.900980 -0.275386 -0.335258
vn -0.968314 -0.158517 -0.192980
vn -0.968313 -0.158517 -0.192980
vn -0.998428 -0.035571 -0.043304
vn -0.998429 -0.035571 -0.043304
vn -0.990177 0.088745 0.108047
vn -0.990177 0.088745 0.108047
vn -0.943871 0.209659 0.255246
vn -0.943872 0.209657 0.255243
vn -0.861305 0.322506 0.392610
vn -0.861306 0.322506 0.392609
vn -0.745619 0.422977 0.514921
vn -0.745618 0.422977 0.514921
vn -0.601274 0.507192 0.617434
vn -0.601275 0.507192 0.617434
vn -0.433854 0.571899 0.696205
vn -0.433854 0.571900 0.696205
vn 0.000029 0.772658 -0.634823
vn 0.000014 0.772681 -0.634794
vn -0.000004 0.772779 -0.634675
vn -0.000018 0.772784 -0.634669
vn -0.000007 0.772703 -0.634767
vn 0.000014 0.772775 -0.634680
vn -0.000058 0.772629 -0.634858
vn 0.000038 0.772786 -0.634666
vn -0.000029 0.772694 -0.634778
vn 0.000044 0.772794 -0.634657
vn 0.000079 0.772795 -0.634656
vn 0.000073 0.772792 -0.634660
vn 0.000012 0.772747 -0.634715
vn 0.000092 0.772777 -0.634678
vn -0.000050 0.772717 -0.634751
vn 0.000030 0.772746 -0.634715
vn 0.000058 0.772731 -0.634734
vn 0.000014 0.772727 -0.634739
vn 0.000088 0.772742 -0.634720
vn -0.000011 0.772738 -0.634725
vn -0.000019 0.772740 -0.634722
vn -0.000101 0.772744 -0.634717
vn -0.000063 0.772743 -0.634719
vn -0.000038 0.772737 -0.634727
vn 0.000064 0.772712 -0.634756
vn 0.000083 0.772713 -0.634755
vn 0.000157 0.772635 -0.634850
vn 0.000068 0.772689 -0.634785
vn 0.000118 0.772631 -0.634856
vn 0.000006 0.772723 -0.634743
vn 0.000045 0.772676 -0.634801
vn -0.000020 0.772756 -0.634703
vn -0.000012 0.772791 -0.634660
vn -0.000016 0.772767 -0.634689
vn -0.000012 0.772820 -0.634625
vn 0.000002 0.772764 -0.634693
vn 0.000005 0.772757 -0.634702
vn 0.000004 0.772754 -0.634706
vn 0.000069 0.772830 -0.634613
vn 0.000025 0.772772 -0.634683
vn 0.000054 0.772804 -0.634645
vn 0.000014 0.772745 -0.634717
vn -0.000055 0.772688 -0.634786
vn 0.000012 0.772730 -0.634735
vn -0.000146 0.772669 -0.634809
vn 0.000068 0.772767 -0.634690
vn -0.000088 0.772705 -0.634765
vn 0.000117 0.772776 -0.634679
vn 0.000157 0.772755 -0.634704
vn 0.000146 0.772762 -0.634697
vn 0.000167 0.772746 -0.634716
vn 0.000086 0.772737 -0.634726
vn -0.000077 0.772746 -0.634715
vn -0.000051 0.772738 -0.634725
vn -0.000302 0.772805 -0.634643
vn -0.000149 0.772765 -0.634693
vn -0.000215 0.772809 -0.634638
vn -0.000081 0.772770 -0.634687
vn 0.000063 0.772698 -0.634774
vn 0.000031 0.772727 -0.634738
vn 0.000080 0.772661 -0.634819
vn 0.000026 0.772698 -0.634774
vn 0.000016 0.772697 -0.634775
vn -0.000014 0.772742 -0.634720
vn 0.000014 0.772738 -0.634725
vn -0.000001 0.772732 -0.634732
vn -0.000004 0.772735 -0.634729
vn -0.000003 0.772736 -0.634727
vn -0.000001 0.772741 -0.634722
vn 0.000010 0.772734 -0.634730
vn -0.000006 0.772739 -0.634724
vn -0.000004 0.772735 -0.634729
vn 0.000012 0.772722 -0.634745
vn 0.000000 0.772728 -0.634737
vn -0.000003 0.772727 -0.634739
vn -0.000003 0.772734 -0.634730
vn 0.000008 0.772747 -0.634715
vn 0.000007 0.772743 -0.634719
vn -0.000019 0.772727 -0.634738
vn -0.000019 0.772728 -0.634737
vn 0.000000 0.772737 -0.634726
vn 0.000007 0.772734 -0.634730
vn 0.000004 0.772732 -0.634732
vn -0.000003 0.772734 -0.634730
vn 0.000006 0.772730 -0.634735
vn 0.000008 0.772730 -0.634735
vn -0.000003 0.772741 -0.634722
vn 0.000001 0.772747 -0.634715
vn 0.000008 0.772738 -0.634725
vn 0.000004 0.772729 -0.634736
vn -0.000001 0.772727 -0.634739
vn -0.000000 0.772725 -0.634741
vn 0.000007 0.772731 -0.634734
vn 0.000015 0.772742 -0.634720
vn 0.000007 0.772743 -0.634720
vn -0.000011 0.772732 -0.634732
vn -0.000028 0.772727 -0.634739
vn -0.184988 0.974379 0.127924
vn -0.185042 0.974370 0.127913
vn -0.321421 0.942697 0.089500
vn -0.321412 0.942700 0.089503
vn -0.041490 0.988510 0.145349
vn -0.041530 0.988509 0.145347
vn 0.103666 0.984572 0.140968
vn 0.103626 0.984575 0.140972
vn 0.244765 0.962829 0.114236
vn 0.244752 0.962832 0.114239
vn 0.376317 0.924102 0.066490
vn 0.376336 0.924095 0.066481
vn 0.493537 0.869725 0.000218
vn 0.493514 0.869738 0.000233
vn 0.591921 0.801795 -0.082183
vn 0.591902 0.801811 -0.082163
vn 0.667635 0.722938 -0.177830
vn 0.667617 0.722962 -0.177801
vn 0.717535 0.636360 -0.283179
vn 0.717540 0.636346 -0.283196
vn 0.739766 0.545294 -0.394208
vn 0.739766 0.545296 -0.394206
vn 0.733610 0.453233 -0.506356
vn 0.733609 0.453229 -0.506360
vn 0.699209 0.363836 -0.615410
vn 0.699193 0.363807 -0.615445
vn 0.637887 0.280357 -0.717286
vn 0.637914 0.280385 -0.717252
vn 0.552189 0.206009 -0.807866
vn 0.552185 0.206006 -0.807869
vn 0.445333 0.143536 -0.883785
vn 0.445335 0.143537 -0.883784
vn 0.321339 0.095485 -0.942138
vn 0.321393 0.095501 -0.942118
vn 0.184997 0.063690 -0.980673
vn 0.185037 0.063696 -0.980665
vn 0.041494 0.049482 -0.997913
vn 0.041539 0.049483 -0.997911
vn -0.103547 0.053482 -0.993186
vn -0.103583 0.053485 -0.993182
vn -0.244726 0.075217 -0.966670
vn -0.244685 0.075208 -0.966681
vn -0.376495 0.113818 -0.919400
vn -0.376514 0.113825 -0.919392
vn -0.493840 0.168057 -0.853158
vn -0.493839 0.168056 -0.853159
vn -0.592095 0.235995 -0.770539
vn -0.592151 0.236042 -0.770481
vn -0.667541 0.314954 -0.674680
vn -0.667539 0.314951 -0.674683
vn -0.717448 0.401491 -0.569274
vn -0.717457 0.401512 -0.569249
vn -0.739805 0.492542 -0.458356
vn -0.739807 0.492559 -0.458335
vn -0.733448 0.584846 -0.346423
vn -0.733444 0.584864 -0.346402
vn -0.699133 0.674438 -0.237374
vn -0.699118 0.674464 -0.237343
vn -0.638134 0.757924 -0.135411
vn -0.638111 0.757949 -0.135381
vn -0.552326 0.832414 -0.044981
vn -0.552347 0.832399 -0.045000
vn -0.445414 0.894790 0.030950
vn -0.445398 0.894797 0.030959
usemtl external_contoller_01:blinn1SG
f 1/1/1 2/2/2 37/3/3 35/4/4
f 2/2/2 3/5/5 39/6/6 37/3/3
f 3/5/5 4/9/7 41/10/8 39/6/6
f 4/9/7 5/15/9 43/16/10 41/10/8
f 5/15/9 6/19/11 45/20/12 43/16/10
f 6/19/11 7/21/13 47/22/14 45/20/12
f 7/21/13 8/23/15 49/24/16 47/22/14
f 8/23/15 9/25/17 51/26/18 49/24/16
f 9/25/17 10/27/19 53/28/20 51/26/18
f 10/27/19 11/29/21 55/30/22 53/28/20
f 11/29/21 12/31/23 57/32/24 55/30/22
f 12/31/23 13/35/25 59/36/26 57/32/24
f 13/35/25 14/37/27 61/38/28 59/36/26
f 14/37/27 15/39/29 63/40/30 61/38/28
f 15/39/29 16/41/31 65/42/32 63/40/30
f 16/41/31 17/43/33 67/44/34 65/42/32
f 17/43/33 18/45/35 69/46/36 67/44/34
f 18/45/35 19/47/37 71/48/38 69/46/36
f 19/47/37 20/49/39 73/50/40 71/48/38
f 20/49/39 21/53/41 75/54/42 73/50/40
f 21/53/41 22/55/43 77/56/44 75/54/42
f 22/55/43 23/57/45 79/58/46 77/56/44
f 23/57/45 24/60/47 81/61/48 79/58/46
f 24/60/47 25/62/49 83/63/50 81/61/48
f 25/62/49 26/64/51 85/65/52 83/63/50
f 26/64/51 27/66/53 87/67/54 85/65/52
f 27/66/53 28/68/55 89/69/56 87/67/54
f 28/68/55 29/72/57 91/73/58 89/69/56
f 29/72/57 30/17/59 93/18/60 91/73/58
f 30/17/59 31/13/61 95/14/62 93/18/60
f 31/13/61 32/7/63 97/8/64 95/14/62
f 32/7/63 1/1/1 35/4/4 97/8/64
f 34/74/65 36/11/66 101/75/67 99/76/68
f 36/11/66 38/12/69 103/77/70 101/75/67
f 38/12/69 40/83/71 105/84/72 103/77/70
f 40/83/71 42/90/73 107/91/74 105/84/72
f 42/90/73 44/97/75 109/98/76 107/91/74
f 44/97/75 46/103/77 111/104/78 109/98/76
f 46/103/77 48/110/79 113/111/80 111/104/78
f 48/110/79 50/116/81 115/117/82 113/111/80
f 50/116/81 52/33/83 117/123/84 115/117/82
f 52/33/83 54/34/85 119/129/86 117/123/84
f 54/34/85 56/135/87 121/136/88 119/129/86
f 56/135/87 58/141/89 123/142/90 121/136/88
f 58/141/89 60/147/91 125/148/92 123/142/90
f 60/147/91 62/154/93 127/155/94 125/148/92
f 62/154/93 64/161/95 129/158/96 127/155/94
f 64/161/95 66/122/97 131/120/98 129/158/96
f 66/122/97 68/51/99 133/89/100 131/120/98
f 68/51/99 70/52/101 135/128/102 133/89/100
f 70/52/101 72/159/103 137/160/104 135/128/102
f 72/159/103 74/151/105 139/152/106 137/160/104
f 74/151/105 76/145/107 141/146/108 139/152/106
f 76/145/107 78/139/109 143/140/110 141/146/108
f 78/139/109 80/133/111 145/134/112 143/140/110
f 80/133/111 82/126/113 147/127/114 145/134/112
f 82/126/113 84/70/115 149/121/116 147/127/114
f 84/70/115 86/71/117 151/114/118 149/121/116
f 86/71/117 88/108/119 153/109/120 151/114/118
f 88/108/119 90/101/121 155/102/122 153/109/120
f 90/101/121 92/94/123 157/95/124 155/102/122
f 92/94/123 94/87/125 159/88/126 157/95/124
f 94/87/125 96/80/127 161/81/128 159/88/126
f 96/80/127 34/74/65 99/76/68 161/81/128
f 100/79/129 33/107/130 98/78/131
f 102/85/132 33/107/130 100/79/129
f 104/92/133 33/107/130 102/85/132
f 106/99/134 33/107/130 104/92/133
f 108/105/135 33/107/130 106/99/134
f 110/112/136 33/107/130 108/105/135
f 112/118/137 33/107/130 110/112/136
f 114/124/138 33/107/130 112/118/137
f 116/130/139 33/107/130 114/124/138
f 118/137/140 33/107/130 116/130/139
f 120/143/141 33/107/130 118/137/140
f 122/149/142 33/107/130 120/143/141
f 124/156/143 33/107/130 122/149/142
f 126/153/144 33/107/130 124/156/143
f 128/115/145 33/107/130 126/153/144
f 130/82/146 33/107/130 128/115/145
f 132/59/147 33/107/130 130/82/146
f 134/96/148 33/107/130 132/59/147
f 136/132/149 33/107/130 134/96/148
f 138/157/150 33/107/130 136/132/149
f 140/150/151 33/107/130 138/157/150
f 142/144/152 33/107/130 140/150/151
f 144/138/153 33/107/130 142/144/152
f 146/131/154 33/107/130 144/138/153
f 148/125/155 33/107/130 146/131/154
f 150/119/156 33/107/130 148/125/155
f 152/113/157 33/107/130 150/119/156
f 154/106/158 33/107/130 152/113/157
f 156/100/159 33/107/130 154/106/158
f 158/93/160 33/107/130 156/100/159
f 160/86/161 33/107/130 158/93/160
f 98/78/131 33/107/130 160/86/161
f 35/4/162 34/74/163 96/80/164 97/8/165
f 34/74/163 35/4/162 37/3/166 36/11/167
f 36/11/167 37/3/166 39/6/168 38/12/169
f 38/12/169 39/6/168 41/10/170 40/83/171
f 40/83/171 41/10/170 43/16/172 42/90/173
f 42/90/173 43/16/172 45/20/174 44/97/175
f 44/97/175 45/20/174 47/22/176 46/103/177
f 46/103/177 47/22/176 49/24/178 48/110/179
f 48/110/179 49/24/178 51/26/180 50/116/181
f 50/116/181 51/26/180 53/28/182 52/33/183
f 52/33/183 53/28/182 55/30/184 54/34/185
f 54/34/185 55/30/184 57/32/186 56/135/187
f 56/135/187 57/32/186 59/36/188 58/141/189
f 58/141/189 59/36/188 61/38/190 60/147/191
f 60/147/191 61/38/190 63/40/192 62/154/193
f 62/154/193 63/40/192 65/42/194 64/161/195
f 64/161/195 65/42/194 67/44/196 66/122/197
f 66/122/197 67/44/196 69/46/198 68/51/199
f 68/51/199 69/46/198 71/48/200 70/52/201
f 70/52/201 71/48/200 73/50/202 72/159/203
f 72/159/203 73/50/202 75/54/204 74/151/205
f 74/151/205 75/54/204 77/56/206 76/145/207
f 76/145/207 77/56/206 79/58/208 78/139/209
f 78/139/209 79/58/208 81/61/210 80/133/211
f 80/133/211 81/61/210 83/63/212 82/126/213
f 82/126/213 83/63/212 85/65/214 84/70/215
f 84/70/215 85/65/214 87/67/216 86/71/217
f 86/71/217 87/67/216 89/69/218 88/108/219
f 88/108/219 89/69/218 91/73/220 90/101/221
f 90/101/221 91/73/220 93/18/222 92/94/223
f 92/94/223 93/18/222 95/14/224 94/87/225
f 94/87/225 95/14/224 97/8/165 96/80/164
f 99/76/68 98/78/131 160/86/161 161/81/128
f 98/78/131 99/76/68 101/75/67 100/79/129
f 100/79/129 101/75/67 103/77/70 102/85/132
f 102/85/132 103/77/70 105/84/72 104/92/133
f 104/92/133 105/84/72 107/91/74 106/99/134
f 106/99/134 107/91/74 109/98/76 108/105/135
f 108/105/135 109/98/76 111/104/78 110/112/136
f 110/112/136 111/104/78 113/111/80 112/118/137
f 112/118/137 113/111/80 115/117/82 114/124/138
f 114/124/138 115/117/82 117/123/84 116/130/139
f 116/130/139 117/123/84 119/129/86 118/137/140
f 118/137/140 119/129/86 121/136/88 120/143/141
f 120/143/141 121/136/88 123/142/90 122/149/142
f 122/149/142 123/142/90 125/148/92 124/156/143
f 124/156/143 125/148/92 127/155/94 126/153/144
f 126/153/144 127/155/94 129/158/96 128/115/145
f 128/115/145 129/158/96 131/120/98 130/82/146
f 130/82/146 131/120/98 133/89/100 132/59/147
f 132/59/147 133/89/100 135/128/102 134/96/148
f 134/96/148 135/128/102 137/160/104 136/132/149
f 136/132/149 137/160/104 139/152/106 138/157/150
f 138/157/150 139/152/106 141/146/108 140/150/151
f 140/150/151 141/146/108 143/140/110 142/144/152
f 142/144/152 143/140/110 145/134/112 144/138/153
f 144/138/153 145/134/112 147/127/114 146/131/154
f 146/131/154 147/127/114 149/121/116 148/125/155
f 148/125/155 149/121/116 151/114/118 150/119/156
f 150/119/156 151/114/118 153/109/120 152/113/157
f 152/113/157 153/109/120 155/102/122 154/106/158
f 154/106/158 155/102/122 157/95/124 156/100/159
f 156/100/159 157/95/124 159/88/126 158/93/160
f 158/93/160 159/88/126 161/81/128 160/86/161
